<svg width="84" height="51" viewBox="0 0 84 51" fill="none" xmlns="http://www.w3.org/2000/svg">
<path d="M3.038 20.3623H2.22852C0.997617 20.3623 0 21.3602 0 22.5908C0 23.8214 0.997617 24.8194 2.22852 24.8194H3.038C4.26828 24.8194 5.26657 23.8214 5.26657 22.5908C5.26657 21.3602 4.26859 20.3623 3.038 20.3623Z" fill="#111111"/>
<path d="M21.5709 24.8194C22.8015 24.8194 23.7998 23.8214 23.7998 22.5908C23.7998 21.3602 22.8015 20.3623 21.5709 20.3623H9.20335C7.97308 20.3623 6.97482 21.3602 6.97482 22.5908C6.97482 23.8214 7.97308 24.8194 9.20335 24.8194H21.5709Z" fill="#111111"/>
<path d="M10.5779 16.5464H11.3782C12.6094 16.5464 13.6067 15.5485 13.6067 14.3182C13.6067 13.087 12.6094 12.0894 11.3782 12.0894H10.5779C9.34703 12.0894 8.34941 13.0873 8.34941 14.3182C8.34941 15.5485 9.34703 16.5464 10.5779 16.5464Z" fill="#111111"/>
<path d="M24.0082 12.0894H17.5442C16.3129 12.0894 15.3153 13.0873 15.3153 14.3182C15.3153 15.5488 16.3129 16.5464 17.5442 16.5464H24.0082C25.2391 16.5464 26.2368 15.5485 26.2368 14.3182C26.2368 13.087 25.2391 12.0894 24.0082 12.0894Z" fill="#111111"/>
<path d="M11.3881 28.6357H10.5779C9.34703 28.6357 8.34941 29.6337 8.34941 30.8646C8.34941 32.0952 9.34703 33.0928 10.5779 33.0928H11.3881C12.619 33.0928 13.6166 32.0949 13.6166 30.8646C13.6166 29.6337 12.619 28.6357 11.3881 28.6357Z" fill="#111111"/>
<path d="M24.0082 28.6357H17.5537C16.3228 28.6357 15.3251 29.6337 15.3251 30.8646C15.3251 32.0952 16.3228 33.0928 17.5537 33.0928H24.0082C25.2391 33.0928 26.2368 32.0949 26.2368 30.8646C26.2368 29.6337 25.2391 28.6357 24.0082 28.6357Z" fill="#111111"/>
<path d="M83.337 24.5136L72.6409 12.8147C72.2191 12.3526 71.6216 12.0895 70.9958 12.0895H58.3498V2.61916C58.3498 1.38825 57.3522 0.390625 56.1213 0.390625H15.5084C14.2775 0.390625 13.2799 1.38857 13.2799 2.61916C13.2799 3.84975 14.2775 4.84769 15.5084 4.84769H53.8925V40.3352H34.6721C33.7095 37.1014 30.7115 34.7362 27.1698 34.7362C23.628 34.7362 20.6294 37.1014 19.6677 40.3352H15.5084C14.2775 40.3352 13.2799 41.3328 13.2799 42.5634C13.2799 43.7946 14.2775 44.792 15.5084 44.792H19.6677C20.6294 48.0251 23.628 50.3906 27.1698 50.3906C30.7115 50.3906 33.7095 48.0251 34.6721 44.792H56.121H61.4038C62.3664 48.0251 65.3651 50.3906 68.9062 50.3906C72.4486 50.3906 75.4465 48.0251 76.4089 44.792H81.692C82.9229 44.792 83.9205 43.7943 83.9205 42.5634V26.0172C83.9211 25.4613 83.7123 24.9245 83.337 24.5136ZM27.1698 45.9342C25.3115 45.9342 23.7996 44.4223 23.7996 42.5637C23.7996 40.7054 25.3115 39.1933 27.1698 39.1933C29.028 39.1933 30.5399 40.7058 30.5399 42.5637C30.5402 44.4223 29.028 45.9342 27.1698 45.9342ZM68.9065 45.9342C67.0482 45.9342 65.5364 44.4223 65.5364 42.5637C65.5364 40.7054 67.0485 39.1933 68.9065 39.1933C70.7654 39.1933 72.2773 40.7058 72.2773 42.5637C72.2776 44.4223 70.7654 45.9342 68.9065 45.9342ZM76.4095 40.3355C75.4472 37.1017 72.4492 34.7365 68.9068 34.7365C65.3654 34.7365 62.3671 37.1017 61.4044 40.3355H58.3502V16.5469H70.0144L76.6355 23.789H64.0121C62.7818 23.789 61.7842 24.7869 61.7842 26.0175C61.7842 27.2487 62.7818 28.2461 64.0121 28.2461H79.4641V40.3352H76.4095V40.3355Z" fill="#111111"/>
</svg>
